<mxfile host="drawio-plugin" modified="2022-09-21T19:12:43.945Z" agent="5.0 (Windows NT 6.2; Win64; x64) AppleWebKit/537.36 (KHTML, like Gecko) Chrome/98.0.4758.102 Safari/537.36" etag="kcuojCCpZ2zV2aEjjsl2" version="15.5.4" type="embed"><diagram name="Page-1" id="13e1069c-82ec-6db2-03f1-153e76fe0fe0"><mxGraphModel dx="1040" dy="549" grid="1" gridSize="10" guides="1" tooltips="1" connect="1" arrows="1" fold="1" page="1" pageScale="1" pageWidth="1100" pageHeight="850" background="none" math="0" shadow="0"><root><mxCell id="0"/><mxCell id="1" parent="0"/><mxCell id="7baba1c4bc27f4b0-2" value="Communication&lt;br&gt;Server" style="shape=umlLifeline;perimeter=lifelinePerimeter;whiteSpace=wrap;html=1;container=1;collapsible=0;recursiveResize=0;outlineConnect=0;rounded=1;shadow=0;comic=0;labelBackgroundColor=none;strokeWidth=1;fontFamily=Verdana;fontSize=12;align=center;" parent="1" vertex="1"><mxGeometry x="240" y="80" width="100" height="760" as="geometry"/></mxCell><mxCell id="7baba1c4bc27f4b0-10" value="" style="html=1;points=[];perimeter=orthogonalPerimeter;rounded=0;shadow=0;comic=0;labelBackgroundColor=none;strokeWidth=1;fontFamily=Verdana;fontSize=12;align=center;" parent="7baba1c4bc27f4b0-2" vertex="1"><mxGeometry x="45" y="180" width="10" height="110" as="geometry"/></mxCell><mxCell id="10" value="" style="html=1;points=[];perimeter=orthogonalPerimeter;rounded=0;shadow=0;comic=0;labelBackgroundColor=none;strokeWidth=1;fontFamily=Verdana;fontSize=12;align=center;" parent="7baba1c4bc27f4b0-2" vertex="1"><mxGeometry x="45" y="310" width="10" height="50" as="geometry"/></mxCell><mxCell id="44" value="Dispatch MQTT Action" style="edgeStyle=orthogonalEdgeStyle;rounded=1;html=1;entryX=0.98;entryY=0.551;entryDx=0;entryDy=0;entryPerimeter=0;endArrow=classic;endFill=1;" parent="7baba1c4bc27f4b0-2" source="23" target="40" edge="1"><mxGeometry x="-0.0249" y="30" relative="1" as="geometry"><Array as="points"><mxPoint x="90" y="490"/><mxPoint x="90" y="553"/></Array><mxPoint as="offset"/></mxGeometry></mxCell><mxCell id="45" value="Dispath STOMP Action" style="edgeStyle=orthogonalEdgeStyle;rounded=1;html=1;entryX=0.922;entryY=0.55;entryDx=0;entryDy=0;entryPerimeter=0;endArrow=classic;endFill=1;" parent="7baba1c4bc27f4b0-2" source="23" target="41" edge="1"><mxGeometry x="0.0133" relative="1" as="geometry"><Array as="points"><mxPoint x="210" y="480"/><mxPoint x="210" y="633"/></Array><mxPoint as="offset"/></mxGeometry></mxCell><mxCell id="23" value="" style="html=1;points=[];perimeter=orthogonalPerimeter;rounded=0;shadow=0;comic=0;labelBackgroundColor=none;strokeWidth=1;fontFamily=Verdana;fontSize=12;align=center;" parent="7baba1c4bc27f4b0-2" vertex="1"><mxGeometry x="45" y="460" width="10" height="40" as="geometry"/></mxCell><mxCell id="28" value="" style="html=1;points=[];perimeter=orthogonalPerimeter;rounded=0;shadow=0;comic=0;labelBackgroundColor=none;strokeWidth=1;fontFamily=Verdana;fontSize=12;align=center;" parent="7baba1c4bc27f4b0-2" vertex="1"><mxGeometry x="45" y="70" width="10" height="50" as="geometry"/></mxCell><mxCell id="40" value="" style="html=1;points=[];perimeter=orthogonalPerimeter;rounded=0;shadow=0;comic=0;labelBackgroundColor=none;strokeWidth=1;fontFamily=Verdana;fontSize=12;align=center;" parent="7baba1c4bc27f4b0-2" vertex="1"><mxGeometry x="45" y="520" width="10" height="60" as="geometry"/></mxCell><mxCell id="41" value="" style="html=1;points=[];perimeter=orthogonalPerimeter;rounded=0;shadow=0;comic=0;labelBackgroundColor=none;strokeWidth=1;fontFamily=Verdana;fontSize=12;align=center;" parent="7baba1c4bc27f4b0-2" vertex="1"><mxGeometry x="45" y="600" width="10" height="60" as="geometry"/></mxCell><mxCell id="7baba1c4bc27f4b0-17" value="Send MAP/BOT creation" style="html=1;verticalAlign=bottom;endArrow=block;labelBackgroundColor=none;fontFamily=Verdana;fontSize=12;edgeStyle=elbowEdgeStyle;elbow=vertical;" parent="7baba1c4bc27f4b0-2" edge="1"><mxGeometry x="-0.4313" relative="1" as="geometry"><mxPoint x="55" y="110" as="sourcePoint"/><Array as="points"><mxPoint x="55" y="110"/><mxPoint x="260" y="78"/><mxPoint x="210" y="297"/></Array><mxPoint x="363" y="110" as="targetPoint"/><mxPoint as="offset"/></mxGeometry></mxCell><mxCell id="51" value="" style="html=1;points=[];perimeter=orthogonalPerimeter;rounded=0;shadow=0;comic=0;labelBackgroundColor=none;strokeWidth=1;fontFamily=Verdana;fontSize=12;align=center;" parent="7baba1c4bc27f4b0-2" vertex="1"><mxGeometry x="45" y="410" width="10" height="40" as="geometry"/></mxCell><mxCell id="54" value="" style="rounded=0;whiteSpace=wrap;html=1;" vertex="1" parent="7baba1c4bc27f4b0-2"><mxGeometry x="45" y="130" width="10" height="40" as="geometry"/></mxCell><mxCell id="7baba1c4bc27f4b0-3" value="Game&lt;br&gt;Manager" style="shape=umlLifeline;perimeter=lifelinePerimeter;whiteSpace=wrap;html=1;container=1;collapsible=0;recursiveResize=0;outlineConnect=0;rounded=1;shadow=0;comic=0;labelBackgroundColor=none;strokeWidth=1;fontFamily=Verdana;fontSize=12;align=center;" parent="1" vertex="1"><mxGeometry x="400" y="80" width="135" height="760" as="geometry"/></mxCell><mxCell id="7baba1c4bc27f4b0-13" value="" style="html=1;points=[];perimeter=orthogonalPerimeter;rounded=0;shadow=0;comic=0;labelBackgroundColor=none;strokeWidth=1;fontFamily=Verdana;fontSize=12;align=center;" parent="7baba1c4bc27f4b0-3" vertex="1"><mxGeometry x="62.5" y="60" width="10" height="30" as="geometry"/></mxCell><mxCell id="7" value="" style="html=1;points=[];perimeter=orthogonalPerimeter;rounded=0;shadow=0;comic=0;labelBackgroundColor=none;strokeWidth=1;fontFamily=Verdana;fontSize=12;align=center;" parent="7baba1c4bc27f4b0-3" vertex="1"><mxGeometry x="62.5" y="170" width="10" height="100" as="geometry"/></mxCell><mxCell id="14" value="" style="html=1;points=[];perimeter=orthogonalPerimeter;rounded=0;shadow=0;comic=0;labelBackgroundColor=none;strokeWidth=1;fontFamily=Verdana;fontSize=12;align=center;" parent="7baba1c4bc27f4b0-3" vertex="1"><mxGeometry x="62.5" y="310" width="10" height="190" as="geometry"/></mxCell><mxCell id="35" value="dispatch bot creation" style="edgeStyle=none;html=1;exitX=-0.166;exitY=0.84;exitDx=0;exitDy=0;exitPerimeter=0;" parent="7baba1c4bc27f4b0-3" edge="1"><mxGeometry x="-0.0051" y="-10" relative="1" as="geometry"><mxPoint x="62.49999999999994" y="200" as="sourcePoint"/><mxPoint x="-103.33999999999997" y="200" as="targetPoint"/><mxPoint as="offset"/></mxGeometry></mxCell><mxCell id="7baba1c4bc27f4b0-4" value="BattleField IHM" style="shape=umlLifeline;perimeter=lifelinePerimeter;whiteSpace=wrap;html=1;container=1;collapsible=0;recursiveResize=0;outlineConnect=0;rounded=1;shadow=0;comic=0;labelBackgroundColor=none;strokeWidth=1;fontFamily=Verdana;fontSize=12;align=center;" parent="1" vertex="1"><mxGeometry x="540" y="80" width="135" height="760" as="geometry"/></mxCell><mxCell id="7baba1c4bc27f4b0-16" value="" style="html=1;points=[];perimeter=orthogonalPerimeter;rounded=0;shadow=0;comic=0;labelBackgroundColor=none;strokeWidth=1;fontFamily=Verdana;fontSize=12;align=center;" parent="7baba1c4bc27f4b0-4" vertex="1"><mxGeometry x="62.5" y="100" width="10" height="40" as="geometry"/></mxCell><mxCell id="5" value="Create Map" style="text;html=1;align=center;verticalAlign=middle;resizable=0;points=[];autosize=1;strokeColor=none;fillColor=none;" parent="7baba1c4bc27f4b0-4" vertex="1"><mxGeometry x="72.5" y="110" width="80" height="20" as="geometry"/></mxCell><mxCell id="30" value="" style="html=1;points=[];perimeter=orthogonalPerimeter;rounded=0;shadow=0;comic=0;labelBackgroundColor=none;strokeWidth=1;fontFamily=Verdana;fontSize=12;align=center;" parent="7baba1c4bc27f4b0-4" vertex="1"><mxGeometry x="62.5" y="190" width="10" height="40" as="geometry"/></mxCell><mxCell id="37" value="" style="html=1;points=[];perimeter=orthogonalPerimeter;rounded=0;shadow=0;comic=0;labelBackgroundColor=none;strokeWidth=1;fontFamily=Verdana;fontSize=12;align=center;" parent="7baba1c4bc27f4b0-4" vertex="1"><mxGeometry x="62.5" y="420" width="10" height="40" as="geometry"/></mxCell><mxCell id="7baba1c4bc27f4b0-8" value="Client" style="shape=umlLifeline;perimeter=lifelinePerimeter;whiteSpace=wrap;html=1;container=1;collapsible=0;recursiveResize=0;outlineConnect=0;rounded=1;shadow=0;comic=0;labelBackgroundColor=none;strokeWidth=1;fontFamily=Verdana;fontSize=12;align=center;" parent="1" vertex="1"><mxGeometry x="100" y="80" width="100" height="756" as="geometry"/></mxCell><mxCell id="7baba1c4bc27f4b0-9" value="" style="html=1;points=[];perimeter=orthogonalPerimeter;rounded=0;shadow=0;comic=0;labelBackgroundColor=none;strokeWidth=1;fontFamily=Verdana;fontSize=12;align=center;" parent="7baba1c4bc27f4b0-8" vertex="1"><mxGeometry x="45" y="200" width="10" height="556" as="geometry"/></mxCell><mxCell id="7baba1c4bc27f4b0-11" value="Start Game&amp;nbsp;&lt;br&gt;MQTT" style="html=1;verticalAlign=bottom;endArrow=block;labelBackgroundColor=none;fontFamily=Verdana;fontSize=12;edgeStyle=elbowEdgeStyle;elbow=vertical;exitX=-0.083;exitY=0.912;exitDx=0;exitDy=0;exitPerimeter=0;" parent="1" source="7baba1c4bc27f4b0-10" edge="1"><mxGeometry x="0.0323" y="-2" relative="1" as="geometry"><mxPoint x="284" y="300" as="sourcePoint"/><mxPoint x="157" y="360" as="targetPoint"/><Array as="points"><mxPoint x="220" y="360"/></Array><mxPoint as="offset"/></mxGeometry></mxCell><mxCell id="4" value="Start Game" style="edgeStyle=none;html=1;exitX=-0.166;exitY=0.84;exitDx=0;exitDy=0;exitPerimeter=0;" parent="1" source="7" target="7baba1c4bc27f4b0-10" edge="1"><mxGeometry x="-0.0251" y="-14" relative="1" as="geometry"><mxPoint x="370" y="496" as="sourcePoint"/><mxPoint as="offset"/></mxGeometry></mxCell><mxCell id="11" value="Send Command" style="html=1;verticalAlign=bottom;endArrow=block;labelBackgroundColor=none;fontFamily=Verdana;fontSize=12;entryX=-0.098;entryY=0.162;entryDx=0;entryDy=0;entryPerimeter=0;" parent="1" target="10" edge="1"><mxGeometry relative="1" as="geometry"><mxPoint x="160" y="398" as="sourcePoint"/><mxPoint x="280" y="496" as="targetPoint"/><mxPoint as="offset"/></mxGeometry></mxCell><mxCell id="13" value="Command Response" style="html=1;verticalAlign=bottom;endArrow=block;endSize=8;labelBackgroundColor=none;fontFamily=Verdana;fontSize=12;edgeStyle=elbowEdgeStyle;elbow=vertical;entryX=1.167;entryY=0.261;entryDx=0;entryDy=0;entryPerimeter=0;" parent="1" target="7baba1c4bc27f4b0-9" edge="1"><mxGeometry x="0.0081" y="21" relative="1" as="geometry"><mxPoint x="150" y="606" as="targetPoint"/><Array as="points"><mxPoint x="220" y="425"/></Array><mxPoint x="280" y="425" as="sourcePoint"/><mxPoint as="offset"/></mxGeometry></mxCell><mxCell id="15" value="dispatch Command" style="html=1;verticalAlign=bottom;endArrow=block;labelBackgroundColor=none;fontFamily=Verdana;fontSize=12;exitX=1.167;exitY=0.474;exitDx=0;exitDy=0;exitPerimeter=0;" parent="1" source="10" edge="1"><mxGeometry x="0.0047" y="4" relative="1" as="geometry"><mxPoint x="300" y="506" as="sourcePoint"/><mxPoint x="460" y="414" as="targetPoint"/><mxPoint as="offset"/></mxGeometry></mxCell><mxCell id="20" value="Compute action" style="text;html=1;align=center;verticalAlign=middle;resizable=0;points=[];autosize=1;strokeColor=none;fillColor=none;" parent="1" vertex="1"><mxGeometry x="470" y="405" width="100" height="20" as="geometry"/></mxCell><mxCell id="24" value="Propagate BattleField Action" style="edgeStyle=none;rounded=0;html=1;endArrow=classic;endFill=1;exitX=-0.075;exitY=0.585;exitDx=0;exitDy=0;exitPerimeter=0;" parent="1" source="14" edge="1"><mxGeometry relative="1" as="geometry"><mxPoint x="462.5" y="501" as="sourcePoint"/><mxPoint x="295" y="501" as="targetPoint"/></mxGeometry></mxCell><mxCell id="27" value="Game Initialisation" style="text;html=1;align=center;verticalAlign=middle;resizable=0;points=[];autosize=1;strokeColor=none;fillColor=none;" parent="1" vertex="1"><mxGeometry x="473" y="140" width="110" height="20" as="geometry"/></mxCell><mxCell id="29" value="dispatch" style="edgeStyle=none;rounded=0;html=1;endArrow=classic;endFill=1;entryX=0.917;entryY=0.124;entryDx=0;entryDy=0;entryPerimeter=0;exitX=-0.057;exitY=0.542;exitDx=0;exitDy=0;exitPerimeter=0;" parent="1" source="7baba1c4bc27f4b0-13" target="28" edge="1"><mxGeometry relative="1" as="geometry"><mxPoint x="300" y="155" as="targetPoint"/></mxGeometry></mxCell><mxCell id="34" value="Send Update" style="html=1;verticalAlign=bottom;endArrow=block;labelBackgroundColor=none;fontFamily=Helvetica;fontSize=11;edgeStyle=elbowEdgeStyle;elbow=vertical;entryX=0.001;entryY=0.529;entryDx=0;entryDy=0;entryPerimeter=0;endFill=1;" parent="1" target="30" edge="1"><mxGeometry x="0.5237" y="-20" relative="1" as="geometry"><mxPoint x="296" y="290" as="sourcePoint"/><Array as="points"/><mxPoint x="590" y="290" as="targetPoint"/><mxPoint as="offset"/></mxGeometry></mxCell><mxCell id="36" value="Add bot to map" style="text;html=1;align=center;verticalAlign=middle;resizable=0;points=[];autosize=1;strokeColor=none;fillColor=none;" parent="1" vertex="1"><mxGeometry x="614" y="280" width="100" height="20" as="geometry"/></mxCell><mxCell id="38" value="Send Update" style="edgeStyle=none;rounded=0;html=1;entryX=-0.13;entryY=0.5;entryDx=0;entryDy=0;entryPerimeter=0;endArrow=block;endFill=1;" parent="1" edge="1"><mxGeometry relative="1" as="geometry"><mxPoint x="295" y="521" as="sourcePoint"/><mxPoint x="601.2" y="521" as="targetPoint"/></mxGeometry></mxCell><mxCell id="39" value="Propagate Event By Bot" style="edgeStyle=none;rounded=0;html=1;endArrow=classic;endFill=1;entryX=1.21;entryY=0.766;entryDx=0;entryDy=0;entryPerimeter=0;" parent="1" edge="1"><mxGeometry relative="1" as="geometry"><mxPoint x="460" y="544" as="sourcePoint"/><mxPoint x="297.0999999999999" y="543.9399999999999" as="targetPoint"/><Array as="points"/></mxGeometry></mxCell><mxCell id="46" value="Get&amp;nbsp; MQTT event" style="endArrow=classic;html=1;" parent="1" edge="1"><mxGeometry x="-0.0167" y="-10" width="50" height="50" relative="1" as="geometry"><mxPoint x="279" y="630" as="sourcePoint"/><mxPoint x="160" y="630" as="targetPoint"/><Array as="points"><mxPoint x="239" y="630"/></Array><mxPoint as="offset"/></mxGeometry></mxCell><mxCell id="47" value="Get&amp;nbsp; STOMP event" style="endArrow=classic;html=1;exitX=-0.121;exitY=0.496;exitDx=0;exitDy=0;exitPerimeter=0;" parent="1" source="41" edge="1"><mxGeometry x="0.0127" y="-15" width="50" height="50" relative="1" as="geometry"><mxPoint x="260" y="710" as="sourcePoint"/><mxPoint x="155" y="710.48" as="targetPoint"/><Array as="points"/><mxPoint as="offset"/></mxGeometry></mxCell><mxCell id="48" value="Command Response" style="html=1;verticalAlign=bottom;endArrow=block;endSize=8;labelBackgroundColor=none;fontFamily=Verdana;fontSize=12;edgeStyle=elbowEdgeStyle;elbow=vertical;entryX=1.084;entryY=0.707;entryDx=0;entryDy=0;entryPerimeter=0;exitX=-0.057;exitY=0.185;exitDx=0;exitDy=0;exitPerimeter=0;" parent="1" source="14" target="10" edge="1"><mxGeometry x="0.0081" y="21" relative="1" as="geometry"><mxPoint x="300" y="426" as="targetPoint"/><Array as="points"><mxPoint x="353.33" y="425.5"/></Array><mxPoint x="450" y="425" as="sourcePoint"/><mxPoint as="offset"/></mxGeometry></mxCell><mxCell id="49" value="Update battlefield map" style="text;html=1;align=center;verticalAlign=middle;resizable=0;points=[];autosize=1;strokeColor=none;fillColor=none;" parent="1" vertex="1"><mxGeometry x="612" y="510" width="140" height="20" as="geometry"/></mxCell><mxCell id="53" value="Enrolment &amp;amp; start" style="text;html=1;align=center;verticalAlign=middle;resizable=0;points=[];autosize=1;strokeColor=none;fillColor=none;fontSize=11;fontFamily=Helvetica;" parent="1" vertex="1"><mxGeometry x="479" y="245" width="110" height="30" as="geometry"/></mxCell><mxCell id="55" value="Call Webservice : game_ready" style="endArrow=classic;html=1;rounded=0;entryX=1;entryY=0.25;entryDx=0;entryDy=0;" edge="1" parent="1" source="7baba1c4bc27f4b0-16" target="54"><mxGeometry width="50" height="50" relative="1" as="geometry"><mxPoint x="470" y="330" as="sourcePoint"/><mxPoint x="520" y="280" as="targetPoint"/></mxGeometry></mxCell></root></mxGraphModel></diagram></mxfile>